<svg xmlns="http://www.w3.org/2000/svg" width="249.626" height="263.031" viewBox="0 0 249.626 263.031">
  <g id="Group_17321" data-name="Group 17321" transform="translate(-1263.687 -1708.485)">
    <g id="Rectangle_43" data-name="Rectangle 43" transform="translate(1355 1812)" fill="#66e3c4" stroke="#707070" stroke-width="1">
      <rect width="21" height="48" stroke="none"/>
      <rect x="0.5" y="0.5" width="20" height="47" fill="none"/>
    </g>
    <g id="Rectangle_45" data-name="Rectangle 45" transform="translate(1401 1824)" fill="#66e3c4" stroke="#707070" stroke-width="1">
      <rect width="21" height="36" stroke="none"/>
      <rect x="0.5" y="0.5" width="20" height="35" fill="none"/>
    </g>
    <g id="Rectangle_46" data-name="Rectangle 46" transform="translate(1445 1832)" fill="#66e3c4" stroke="#707070" stroke-width="1">
      <rect width="21" height="28" stroke="none"/>
      <rect x="0.5" y="0.5" width="20" height="27" fill="none"/>
    </g>
    <g id="Rectangle_47" data-name="Rectangle 47" transform="translate(1366 1914)" fill="#66e3c4" stroke="#707070" stroke-width="1">
      <rect width="46" height="25" stroke="none"/>
      <rect x="0.5" y="0.5" width="45" height="24" fill="none"/>
    </g>
    <path id="Path_12" data-name="Path 12" d="M327.046,8.484H110.991A16.749,16.749,0,0,0,94.185,25.129v175.2a16.741,16.741,0,0,0,16.766,16.645H191.3v18.412h-7.784a15.739,15.739,0,0,0-15.773,15.659v16.357a4.136,4.136,0,0,0,4.14,4.11h94.22a4.136,4.136,0,0,0,4.14-4.11V251.048a15.739,15.739,0,0,0-15.773-15.659h-7V216.977h79.568a16.876,16.876,0,0,0,16.518-13.6,18.8,18.8,0,0,0,.248-3.041V25.129A16.741,16.741,0,0,0,327.045,8.484ZM102.462,25.129A8.477,8.477,0,0,1,110.99,16.7H327.044a8.468,8.468,0,0,1,8.487,8.426v152.8H327l0-148.611a4.136,4.136,0,0,0-4.14-4.11h-207.7a4.136,4.136,0,0,0-4.14,4.11V177.93H102.46ZM119.31,177.935V33.431H318.684v144.5Zm142.7,73.117V263.3H176.025V251.051a7.465,7.465,0,0,1,7.494-7.44h70.956A7.5,7.5,0,0,1,262.008,251.051Zm-22.768-15.659h-39.66V216.98h39.66Zm96.293-35.057c0,.575-.082,1.15-.124,1.6a8.539,8.539,0,0,1-8.363,6.823H110.992a8.468,8.468,0,0,1-8.487-8.426V186.156H335.534Z" transform="translate(1169.502 1700)" fill="#003c62"/>
    <path id="Path_13" data-name="Path 13" d="M205.116,252.93H181.727a4.136,4.136,0,0,0-4.14,4.11v29.92a4.136,4.136,0,0,0,4.14,4.11h23.389a4.136,4.136,0,0,0,4.14-4.11V257.04A4.136,4.136,0,0,0,205.116,252.93Zm-4.14,29.961h-15.11v-21.7h15.11Z" transform="translate(1261.792 1573.958)" fill="#003c62"/>
    <path id="Path_14" data-name="Path 14" d="M298.409,211.36H275.06a4.136,4.136,0,0,0-4.14,4.11v50.1a4.136,4.136,0,0,0,4.14,4.11h23.349a4.136,4.136,0,0,0,4.14-4.11v-50.1a4.084,4.084,0,0,0-4.14-4.11Zm-4.14,50.1H279.2v-41.88h15.07Z" transform="translate(1078.997 1595.393)" fill="#003c62"/>
    <path id="Path_15" data-name="Path 15" d="M391.739,237.75H368.39a4.136,4.136,0,0,0-4.14,4.11v37.318a4.136,4.136,0,0,0,4.14,4.11h23.349a4.136,4.136,0,0,0,4.14-4.11V241.86A4.136,4.136,0,0,0,391.739,237.75Zm-4.14,37.318h-15.07v-29.1H387.6Z" transform="translate(1031.203 1581.785)" fill="#003c62"/>
    <g id="Group_62" data-name="Group 62" transform="translate(-132.744)">
      <g id="Rectangle_44" data-name="Rectangle 44" transform="translate(1446 1800)" fill="#66e3c4" stroke="#707070" stroke-width="1">
        <rect width="21" height="60" stroke="none"/>
        <rect x="0.5" y="0.5" width="20" height="59" fill="none"/>
      </g>
      <path id="Path_16" data-name="Path 16" d="M484.945,183.44H461.555a4.136,4.136,0,0,0-4.14,4.11l0,63.623a4.136,4.136,0,0,0,4.14,4.11h23.389a4.136,4.136,0,0,0,4.14-4.11l0-63.623A4.111,4.111,0,0,0,484.945,183.44Zm-4.14,63.623h-15.11l0-55.4H480.8Z" transform="translate(983.495 1609.789)" fill="#003c62"/>
    </g>
    <path id="Path_17" data-name="Path 17" d="M205.747,158.641a4.092,4.092,0,0,0,1.7-.369l43.8-19.727,43.8,19.727a4.185,4.185,0,0,0,4.305-.534L336.815,127.7l-.787,5.96a4.123,4.123,0,0,0,3.56,4.6,2.342,2.342,0,0,0,.537.042,4.105,4.105,0,0,0,4.1-3.576l2.07-16.028a4.129,4.129,0,0,0-.827-3.205,6.647,6.647,0,0,0-.827-.7c-.124-.081-.248-.206-.372-.288a4.773,4.773,0,0,0-.993-.329,2.322,2.322,0,0,0-.5-.165l-16.229-2.138a4.1,4.1,0,1,0-1.077,8.138l6.707.863-36.015,28.892-43.178-19.439a4.17,4.17,0,0,0-3.436,0l-45.5,20.463a4.094,4.094,0,0,0-2.07,5.425,4.151,4.151,0,0,0,3.768,2.426Z" transform="matrix(0.788, 0.616, -0.616, 0.788, 1255.83, 1501.919)" fill="#e10015"/>
  </g>
</svg>
