<svg xmlns="http://www.w3.org/2000/svg" width="27.357" height="37.779" viewBox="0 0 27.357 37.779">
  <g id="Group_1112" data-name="Group 1112" transform="translate(-855.08 -273)">
    <path id="Path_342" data-name="Path 342" d="M193.457,34.3l-6.514-7.816a.65.65,0,0,0-.5-.234H166.9a.651.651,0,0,0-.651.651V63.379a.651.651,0,0,0,.651.651h26.055a.651.651,0,0,0,.651-.651V34.719A.651.651,0,0,0,193.457,34.3Zm-1.152,28.426H167.554V27.554h18.238v7.165a.651.651,0,0,0,.651.651h5.862ZM172.113,39.279h15.633a.651.651,0,1,1,0,1.3H172.113a.651.651,0,1,1,0-1.3ZM188.4,43.187a.651.651,0,0,1-.651.651H172.113a.651.651,0,1,1,0-1.3h15.633a.651.651,0,0,1,.651.651Zm0,3.257a.651.651,0,0,1-.651.651H172.113a.651.651,0,1,1,0-1.3h15.633a.651.651,0,0,1,.651.651Z" transform="translate(688.829 246.748)" fill="#2d2d2d"/>
  </g>
</svg>
