<svg xmlns="http://www.w3.org/2000/svg" width="28.626" height="28.934" viewBox="0 0 28.626 28.934">
  <path id="Path_361" data-name="Path 361" d="M118.565,33.745V19.878H115.8V16.8H92.4V40.193h2.77v3.078h13.867a6.768,6.768,0,1,0,9.527-9.527ZM115.8,21.109h1.539V32.935a6.5,6.5,0,0,0-1.539-.566ZM93.633,38.962V18.031h20.931V32.2c-.1-.006-.2-.009-.308-.009a6.78,6.78,0,0,0-6.772,6.772ZM96.4,42.04V40.193H107.6a6.656,6.656,0,0,0,.631,1.847Zm22.162.4a5.34,5.34,0,0,1-.834.834,5.537,5.537,0,0,1-8.077-1.231,5.57,5.57,0,0,1-.939-3.078,5.549,5.549,0,0,1,5.54-5.54c.1,0,.206,0,.308.009a5.491,5.491,0,0,1,2.77.93,5.526,5.526,0,0,1,1.231,8.077ZM111.23,23.572H96.456a.77.77,0,1,1,0-1.539H111.23a.77.77,0,1,1,0,1.539Zm0,3.54H96.456a.77.77,0,1,1,0-1.539H111.23a.77.77,0,1,1,0,1.539Zm0,3.54H96.456a.77.77,0,1,1,0-1.539H111.23a.77.77,0,1,1,0,1.539Zm-6.978,3.694h-7.7a.77.77,0,1,1,0-1.539h7.7a.77.77,0,0,1,0,1.539Zm13.236,4.309c0,.015,0,.028,0,.043l-3.537-.043v3.54a3.54,3.54,0,0,1-3.54-3.54c0-.015,0-.028,0-.043a3.538,3.538,0,0,1,7.077.043Zm-2.924.573,3.537.043a3.537,3.537,0,0,1-3.537,3.5Z" transform="translate(-92.402 -16.8)" fill="#2d2d2d"/>
</svg>
