<svg xmlns="http://www.w3.org/2000/svg" width="22.517" height="31.094" viewBox="0 0 22.517 31.094">
  <path id="Path_363" data-name="Path 363" d="M188.646,32.878l-5.361-6.433a.537.537,0,0,0-.412-.193H166.789a.536.536,0,0,0-.536.536V56.81a.536.536,0,0,0,.536.536h21.444a.536.536,0,0,0,.536-.536V33.221a.538.538,0,0,0-.124-.343Zm-5.237-4.609,3.68,4.416h-3.68ZM187.7,56.274H167.326V27.324h15.011v5.9a.536.536,0,0,0,.536.536H187.7Zm-7.506-23.053V28.932a.536.536,0,0,0-.536-.536h-9.65a.536.536,0,0,0-.536.536v4.289a.536.536,0,0,0,.536.536h9.65a.536.536,0,0,0,.536-.536Zm-1.072-.536h-8.578V29.468h8.578Zm-6.969-1.608a.536.536,0,0,1,.536-.536h4.289a.536.536,0,1,1,0,1.072h-4.289A.536.536,0,0,1,172.151,31.077Zm-.536,4.289a.536.536,0,1,1-.157-.379A.536.536,0,0,1,171.614,35.366Zm7.506,0a.536.536,0,0,1-.536.536h-5.9a.536.536,0,0,1,0-1.072h5.9a.536.536,0,0,1,.536.536Zm-.536,5.361h-2.144a.536.536,0,0,0-.536.536v9.114a.536.536,0,0,0,.536.536h2.144a.536.536,0,0,0,.536-.536V41.263a.536.536,0,0,0-.536-.536Zm-.536,9.114h-1.072V41.8h1.072Zm-5.9-7.506a.536.536,0,0,0-.536.536v7.506a.536.536,0,0,0,.536.536H174.3a.536.536,0,0,0,.536-.536V42.871a.536.536,0,0,0-.536-.536Zm1.608,7.506h-1.072V43.407h1.072Zm6.969-5.9a.536.536,0,0,0-.536.536v5.9a.536.536,0,0,0,.536.536h2.144a.536.536,0,0,0,.536-.536v-5.9a.536.536,0,0,0-.536-.536Zm1.608,5.9h-1.072V45.016h1.072Zm1.072,2.681a.536.536,0,0,1-.536.536H172.151a.536.536,0,0,1,0-1.072h10.722a.536.536,0,0,1,.536.536Z" transform="translate(-166.253 -26.252)" fill="#2d2d2d"/>
</svg>
