<svg xmlns="http://www.w3.org/2000/svg" width="315" height="402.497" viewBox="0 0 315 402.497">
  <g id="noun-user-2627747" transform="translate(-192.504 -70)">
    <path id="Path_12236" data-name="Path 12236" d="M350,245a87.609,87.609,0,1,0-61.84-25.66A87.5,87.5,0,0,0,350,245Zm0-140a52.494,52.494,0,1,1-37.125,15.375A52.511,52.511,0,0,1,350,105Z"/>
    <path id="Path_12237" data-name="Path 12237" d="M351.75,262.5h-3.5A151.814,151.814,0,0,0,192.5,409.618V455A17.5,17.5,0,0,0,210,472.5H490A17.5,17.5,0,0,0,507.5,455V409.618A151.814,151.814,0,0,0,351.758,262.5Zm120.75,175h-245V409.621A116.831,116.831,0,0,1,348.25,297.5h3.5A116.831,116.831,0,0,1,472.5,409.621Z"/>
  </g>
</svg>
