<svg xmlns="http://www.w3.org/2000/svg" xmlns:xlink="http://www.w3.org/1999/xlink" width="657" height="622.185" viewBox="0 0 657 622.185">
  <defs>
    <clipPath id="clip-path">
      <path id="Path_31" data-name="Path 31" d="M3746.783,973.485a23.4,23.4,0,0,0,23.4,23.4h259.9a23.4,23.4,0,0,0,23.4-23.4V815.357H3746.783Z" transform="translate(-3746.783 -815.357)" fill="none"/>
    </clipPath>
  </defs>
  <g id="Group_105" data-name="Group 105" transform="translate(-2945.559 -364.275)">
    <g id="Group_67" data-name="Group 67" transform="translate(2945.559 364.275)">
      <path id="Path_20" data-name="Path 20" d="M3345.886,1059.5l-.7-.731,4.389-4.188.7.731Zm8.766-8.4-.71-.721c1.426-1.4,2.857-2.853,4.253-4.306l.729.7C3357.521,1048.234,3356.084,1049.689,3354.652,1051.1Zm8.424-8.769-.748-.681c1.342-1.473,2.692-3,4.016-4.53l.766.662C3365.78,1039.322,3364.424,1040.852,3363.076,1042.332Zm7.949-9.2-.781-.642c1.262-1.537,2.535-3.129,3.783-4.726l.8.622C3373.572,1029.99,3372.294,1031.587,3371.026,1033.132Zm7.484-9.581-.811-.6c1.187-1.595,2.385-3.243,3.559-4.9l.824.584C3380.9,1020.3,3379.7,1021.949,3378.509,1023.551Zm7.037-9.911-.838-.567q1.7-2.507,3.346-5.048l.848.549Q3387.251,1011.124,3385.546,1013.64Zm55.4-7.011a14.806,14.806,0,0,1-5.448-1.038l.375-.938a13.8,13.8,0,0,0,5.073.965c.252-.024.437,0,.654-.015l.05,1.009C3441.414,1006.624,3441.135,1006.609,3440.945,1006.629Zm6.714-1.728-.506-.875a10.981,10.981,0,0,0,4.032-4.072l.878.5A11.986,11.986,0,0,1,3447.659,1004.9Zm-55.5-1.459-.859-.534q1.595-2.572,3.144-5.177l.869.517Q3393.758,1000.86,3392.157,1003.441Zm38.216-1.409a17.721,17.721,0,0,1-3.328-5.245l.932-.392a16.76,16.76,0,0,0,3.137,4.949Zm23.365-7.6-1.011-.021,0-.27a10.5,10.5,0,0,0-.893-4.293q-.229-.507-.5-.987l.88-.5q.295.52.544,1.069a11.517,11.517,0,0,1,.983,4.71Zm-54.969-1.06-.775-.65a38.487,38.487,0,0,1,4.308-4.377l.662.764A37.507,37.507,0,0,0,3398.768,993.369Zm26.713-2.569a24.59,24.59,0,0,1-.174-2.925,25.933,25.933,0,0,1,.206-3.25l1,.126a25,25,0,0,0-.2,3.124,23.477,23.477,0,0,0,.167,2.8Zm-17.7-5.232-.532-.86a41.611,41.611,0,0,1,5.445-2.832l.4.93A40.63,40.63,0,0,0,3407.784,985.569Zm39.662-1.044a22.225,22.225,0,0,0-5.167-2.877l.378-.938a23.219,23.219,0,0,1,5.4,3.011Zm-28.692-3.692-.266-.976a43.464,43.464,0,0,1,6.017-1.188l.125,1A42.433,42.433,0,0,0,3418.754,980.833Zm17.8-.839a36.662,36.662,0,0,0-5.945-.624l.025-1.011a37.755,37.755,0,0,1,6.109.642Zm-8.643-1.022-.951-.341a30.248,30.248,0,0,1,2.669-5.553l.862.529A29.223,29.223,0,0,0,3427.911,978.973Zm6.181-10.111-.74-.688q.442-.475.9-.934a32.874,32.874,0,0,1,3.7-3.148l.6.816a31.721,31.721,0,0,0-3.586,3.052Q3434.519,968.4,3434.093,968.862Zm9.57-7.051-.449-.906a37.689,37.689,0,0,1,5.709-2.268l.3.967A36.786,36.786,0,0,0,3443.663,961.811Zm11.407-3.714-.251-.979c1.977-.507,3.944-1.037,5.845-1.576l.275.973C3459.031,957.056,3457.056,957.588,3455.07,958.1Zm11.7-3.324-.3-.965c1.95-.614,3.883-1.254,5.743-1.9l.334.955C3470.67,953.512,3468.727,954.156,3466.767,954.773Zm11.483-4.017-.365-.943c1.893-.734,3.776-1.505,5.6-2.29l.4.928C3482.049,949.241,3480.154,950.017,3478.25,950.756Zm11.172-4.825-.438-.911,5.455-2.65.443.91Zm10.917-5.3-.443-.909,5.457-2.653.442.91Zm10.913-5.3-.442-.91,5.456-2.652.442.909Zm10.913-5.3-.442-.91,5.457-2.652.442.91Zm10.913-5.305-.442-.909,5.457-2.653.442.909Z" transform="translate(-3183.552 -695.913)" fill="#9192ff"/>
      <path id="Path_21" data-name="Path 21" d="M3763.627,405.043a5.166,5.166,0,0,0,.025.617h132.977c-.346-10.962-9.888-19.751-21.591-19.751a22.569,22.569,0,0,0-10.345,2.481,23.585,23.585,0,0,0-11.493-21.084c-11.332-6.567-26.158-2.111-33.1,9.962a26.565,26.565,0,0,0-3.494,11.444,48.08,48.08,0,0,0-19.813-4.037C3778.478,384.675,3763.627,393.8,3763.627,405.043Z" transform="translate(-3432.747 -364.275)" fill="#ebebff"/>
      <path id="Path_22" data-name="Path 22" d="M3055.21,1182.29H2945.559l.013-.391c.292-9.278,8.227-16.546,18.064-16.546a19.034,19.034,0,0,1,8.092,1.8,19.745,19.745,0,0,1,9.606-16.988,19.067,19.067,0,0,1,14.609-1.849,21.377,21.377,0,0,1,13.019,10.149,22.025,22.025,0,0,1,2.868,9,39.921,39.921,0,0,1,15.894-3.12c15.191,0,27.548,7.655,27.548,17.063a4.6,4.6,0,0,1-.022.55Zm-108.864-.758h108.167v-.127c0-8.991-12.018-16.3-26.79-16.3a38.889,38.889,0,0,0-16.071,3.273l-.5.229-.036-.548a21.236,21.236,0,0,0-2.812-9.211,20.624,20.624,0,0,0-12.557-9.794,18.324,18.324,0,0,0-14.033,1.772,19.03,19.03,0,0,0-9.225,16.936l.011.634-.564-.289a18.228,18.228,0,0,0-8.3-1.991C2954.35,1166.111,2946.834,1172.853,2946.347,1181.531Z" transform="translate(-2945.559 -830.789)" fill="#9192ff"/>
    </g>
    <g id="Group_81" data-name="Group 81" transform="translate(3269.121 426.732)">
      <g id="Group_71" data-name="Group 71" transform="translate(0.505 119.99)">
        <g id="Group_70" data-name="Group 70" clip-path="url(#clip-path)">
          <path id="Path_23" data-name="Path 23" d="M3746.783,973.485a23.4,23.4,0,0,0,23.4,23.4h259.9a23.4,23.4,0,0,0,23.4-23.4V815.357H3746.783Z" transform="translate(-3746.783 -815.357)" fill="#fff"/>
          <path id="Path_24" data-name="Path 24" d="M3641.865,883.635c3.585-11.495,14.927-20.318,27.32-21.251s25.039,6.08,30.463,16.9a18.96,18.96,0,0,1,16.3,9.17,17.633,17.633,0,0,1-.568,18.2,25.736,25.736,0,0,1,18.377,13.47,24.145,24.145,0,0,1-.493,22.263,29.553,29.553,0,0,1,27.986,1.013,27.522,27.522,0,0,1,13.227,23.87,29.441,29.441,0,0,1,50.574,2.3c4.817-14.413,17.662-26.049,32.86-29.767a48.748,48.748,0,0,1,43.623,11.054c17.105,2.676,29.574,21.251,25.117,37.418a34.52,34.52,0,0,1,12.032,31.672c-1.932,11.594-10.451,21.946-21.7,26.374l-294.324-.191-25.091-112.292Z" transform="translate(-3657.915 -843.313)" fill="#d1d1ff"/>
          <g id="Group_68" data-name="Group 68" transform="translate(-63.565 56.257)" opacity="0.8">
            <path id="Path_25" data-name="Path 25" d="M3632.47,975.8a30.058,30.058,0,0,1,55.83-4.4,17.784,17.784,0,0,1,15.174,27.354,24.484,24.484,0,0,1,17.25,35.717,27.153,27.153,0,0,1,39.8,24.849,27.961,27.961,0,0,1,48.86,2.265,45.05,45.05,0,0,1,73.908-18.773c16.524,2.663,28.556,21.226,24.237,37.4a34.443,34.443,0,0,1-9.39,58.053l-284.36.042-24.153-112.27Z" transform="translate(-3589.624 -954.446)" fill="#fff"/>
          </g>
          <g id="Group_69" data-name="Group 69" transform="translate(-21.394 5.062)">
            <path id="Path_26" data-name="Path 26" d="M3920.635,827.873c-85.184,80.107-145.59,101.707-221.691,109.431l-5.056,80.893,79.882,27.3c69.77-2.022,136.763-103.026,178.145-189.675l-31.28-27.95" transform="translate(-3693.888 -827.873)" fill="#fff2e0" opacity="0.7"/>
            <path id="Path_27" data-name="Path 27" d="M4196.743,830.447c-13.85,16.385-34.736,32.059-59.372,53.227l33.613-13.7c-4.121,6.831-10.123,16.388-13.489,20.488,7.747-3.576,20.214-11.444,24.343-15.615,0,5.821-7.014,15.556-10.07,20.875,17.929-15.344,34.239-34.078,39.508-50.533l-14.534-14.743" transform="translate(-3957.997 -829.406)" fill="#ffa121"/>
            <path id="Path_28" data-name="Path 28" d="M4242.415,832.5c-8.192,10.86-20.454,21.327-34.944,35.427l19.615-9.307c-2.458,4.511-6.034,10.824-8.026,13.54,4.525-2.419,11.829-7.693,14.264-10.464-.062,3.807-4.224,10.247-6.049,13.758,10.544-10.221,20.187-22.643,23.408-33.461l-8.268-9.494" transform="translate(-3999.744 -830.626)" fill="#fff" opacity="0.4"/>
          </g>
          <path id="Path_29" data-name="Path 29" d="M3960.746,957.931c.109,2.532,0,6.808-2.532,8.272-4.224,2.446-7.546-3.492-9.1-6.476-1.85-3.563-1.377-7.985,2.805-9.573C3957.447,948.055,3960.542,953.2,3960.746,957.931Z" transform="translate(-3866.666 -895.346)" fill="#d1d1ff"/>
          <path id="Path_30" data-name="Path 30" d="M4455.865,1148.04c.109,2.532,0,6.807-2.532,8.272-4.224,2.446-7.546-3.491-9.1-6.476-1.849-3.563-1.377-7.985,2.806-9.574C4452.567,1138.163,4455.662,1143.313,4455.865,1148.04Z" transform="translate(-4161.527 -1008.562)" fill="#d1d1ff"/>
          <circle id="Ellipse_2" data-name="Ellipse 2" cx="3.539" cy="3.539" r="3.539" transform="translate(68.094 30.398)" fill="#d1d1ff"/>
          <circle id="Ellipse_3" data-name="Ellipse 3" cx="5.389" cy="5.389" r="5.389" transform="translate(244.397 95.382) rotate(-26.428)" fill="#d1d1ff"/>
        </g>
      </g>
      <g id="Group_76" data-name="Group 76" transform="translate(0 58.221)">
        <path id="Path_32" data-name="Path 32" d="M4029.334,996.645h-259.9a23.932,23.932,0,0,1-23.9-23.9V814.106H4053.24V972.74A23.933,23.933,0,0,1,4029.334,996.645ZM3746.545,815.117V972.74a22.919,22.919,0,0,0,22.893,22.894h259.9a22.919,22.919,0,0,0,22.894-22.894V815.117Z" transform="translate(-3745.534 -752.843)" fill="#9192ff"/>
        <g id="Group_72" data-name="Group 72">
          <path id="Path_33" data-name="Path 33" d="M4030.079,663.89h-259.9a23.4,23.4,0,0,0-23.4,23.4v37.864h306.694V687.289A23.4,23.4,0,0,0,4030.079,663.89Z" transform="translate(-3746.278 -663.384)" fill="#fff"/>
          <path id="Path_34" data-name="Path 34" d="M4053.24,724.913H3745.534v-38.37a23.931,23.931,0,0,1,23.9-23.9h259.9a23.932,23.932,0,0,1,23.905,23.9ZM3746.545,723.9h305.683V686.544a22.92,22.92,0,0,0-22.894-22.894h-259.9a22.919,22.919,0,0,0-22.893,22.894Z" transform="translate(-3745.534 -662.639)" fill="#9192ff"/>
        </g>
        <g id="Group_75" data-name="Group 75" transform="translate(16.277 12.995)">
          <circle id="Ellipse_4" data-name="Ellipse 4" cx="12.828" cy="12.828" r="12.828" transform="matrix(0.199, -0.98, 0.98, 0.199, 0, 28.162)" fill="#d1d1ff"/>
          <g id="Group_73" data-name="Group 73" transform="translate(34.767 0)">
            <circle id="Ellipse_5" data-name="Ellipse 5" cx="12.828" cy="12.828" r="12.828" transform="translate(0 18.142) rotate(-45)" fill="#fff"/>
            <path id="Path_35" data-name="Path 35" d="M3896.956,733.325a13.334,13.334,0,1,1,13.334-13.334A13.349,13.349,0,0,1,3896.956,733.325Zm0-25.656a12.323,12.323,0,1,0,12.323,12.322A12.336,12.336,0,0,0,3896.956,707.668Z" transform="translate(-3878.814 -701.849)" fill="#9192ff"/>
          </g>
          <g id="Group_74" data-name="Group 74" transform="translate(86.734 5.392)">
            <rect id="Rectangle_50" data-name="Rectangle 50" width="75.567" height="24.489" rx="12.245" transform="translate(0.506 0.506)" fill="#fff"/>
            <path id="Path_36" data-name="Path 36" d="M4064.047,733.6h-51.078a12.75,12.75,0,0,1,0-25.5h51.078a12.75,12.75,0,0,1,0,25.5Zm-51.078-24.489a11.739,11.739,0,1,0,0,23.478h51.078a11.739,11.739,0,0,0,0-23.478Z" transform="translate(-4000.219 -708.099)" fill="#9192ff"/>
          </g>
        </g>
      </g>
      <g id="Group_80" data-name="Group 80" transform="translate(201.839)">
        <g id="Group_77" data-name="Group 77" transform="translate(1.681 30.818)">
          <path id="Path_37" data-name="Path 37" d="M4317.417,594.889c-20.481,17.929-55.807,5.571-66.785,19.888L4282,639.616Z" transform="translate(-4249.857 -594.889)" fill="#3335cf"/>
          <path id="Path_38" data-name="Path 38" d="M4249.492,644.061h0a12.124,12.124,0,0,0,2.215,12.238l22.228,25.459,6.924-12.859Z" transform="translate(-4248.716 -624.173)" fill="#d1d1ff"/>
        </g>
        <g id="Group_78" data-name="Group 78" transform="translate(69.316 67.579)">
          <path id="Path_39" data-name="Path 39" d="M4478.377,685.776c-12.757,24.046,7.369,55.6-4.05,69.565L4442.96,730.5Z" transform="translate(-4432.03 -685.776)" fill="#3335cf"/>
          <path id="Path_40" data-name="Path 40" d="M4458.234,821.2h0a12.122,12.122,0,0,1-12.42.649l-29.876-15.8,10.929-9.687Z" transform="translate(-4415.938 -751.631)" fill="#d1d1ff"/>
        </g>
        <path id="Path_41" data-name="Path 41" d="M4528.807,518.694l-27.926,10.252,24.348,19.281Z" transform="translate(-4397.208 -518.694)" fill="#1b1b43"/>
        <path id="Path_42" data-name="Path 42" d="M4395.662,563.321c-3.9,44.19-36.552,85.423-76.208,108.325l-36.138-28.586c15.163-47.708,43.4-81.848,88-99.02Z" transform="translate(-4267.641 -533.789)" fill="#c5c5ff"/>
        <path id="Path_43" data-name="Path 43" d="M4260.235,788.857l-15.675,10.853,44.836,35.5,6.977-17.771Z" transform="translate(-4244.561 -679.585)" fill="#3335cf"/>
        <g id="Group_79" data-name="Group 79" transform="translate(74.554 29.871)">
          <circle id="Ellipse_6" data-name="Ellipse 6" cx="16.772" cy="16.772" r="16.772" transform="matrix(0.993, -0.118, 0.118, 0.993, 0, 3.96)" fill="#fff"/>
          <path id="Path_44" data-name="Path 44" d="M4458.694,632.947l-.107-1.005a11,11,0,0,0,2.809-.682l.365.943A11.98,11.98,0,0,1,4458.694,632.947Zm-3.157-.08a11.86,11.86,0,0,1-3.026-.906l.416-.921a10.871,10.871,0,0,0,2.769.829Zm8.991-2.188-.6-.813a11.012,11.012,0,0,0,2.077-2.012l.792.628A11.926,11.926,0,0,1,4464.528,630.68Zm-14.7-.387a11.943,11.943,0,0,1-2.155-2.309l.823-.586a10.952,10.952,0,0,0,1.973,2.114Zm18.2-3.713-.9-.467a10.918,10.918,0,0,0,.984-2.718l.987.215A11.912,11.912,0,0,1,4468.033,626.58Zm-21.829-1.391a12.057,12.057,0,0,1-.687-3.082l1.007-.089a11.008,11.008,0,0,0,.63,2.822Zm22.152-4.674a11.13,11.13,0,0,0-.526-2.845l.962-.312a12,12,0,0,1,.573,3.1Zm-21.7-1.384-1-.178a11.857,11.857,0,0,1,.964-3.008l.912.434A10.9,10.9,0,0,0,4446.652,619.13Zm19.93-4.066a10.951,10.951,0,0,0-1.892-2.187l.671-.756a11.976,11.976,0,0,1,2.066,2.389Zm-17.475-1.112-.768-.656a11.932,11.932,0,0,1,2.348-2.111l.571.836A10.933,10.933,0,0,0,4449.107,613.952Zm13.188-2.693a10.9,10.9,0,0,0-2.735-.932l.2-.993a11.912,11.912,0,0,1,2.99,1.019Zm-8.456-.537-.33-.956a12.065,12.065,0,0,1,3.093-.63l.071,1.009A11.019,11.019,0,0,0,4453.839,610.722Z" transform="translate(-4438.791 -602.427)" fill="#9192ff"/>
        </g>
        <rect id="Rectangle_51" data-name="Rectangle 51" width="6.461" height="56.106" rx="3.23" transform="translate(42.441 107.388) rotate(38.375)" fill="#1b1b43"/>
      </g>
    </g>
    <g id="Group_83" data-name="Group 83" transform="translate(3382.137 796.758)">
      <path id="Path_45" data-name="Path 45" d="M4201.411,1592.222h-6.067v-1.011h6.067Zm-12.134,0h-6.067v-1.011h6.067Zm-12.134,0h-6.067v-1.011h6.067Zm-12.134,0h-6.066v-1.011h6.066Zm-12.134,0h-6.067v-1.011h6.067Zm-12.134,0h-6.067v-1.011h6.067Zm-12.134,0h-6.067v-1.011h6.067Zm-12.134,0h-6.067v-1.011h6.067Zm-12.135,0h-6.066v-1.011h6.066Zm-12.134,0h-6.067v-1.011h6.067Zm-12.139,0a19.336,19.336,0,0,1-6.112-1.043l.328-.956a18.343,18.343,0,0,0,5.794.988Zm122.074-.012-.038-1.011a18.329,18.329,0,0,0,5.764-1.152l.355.946A19.36,19.36,0,0,1,4202.141,1592.209Zm-133.655-3.958a19.46,19.46,0,0,1-4.267-4.5l.835-.571a18.418,18.418,0,0,0,4.045,4.266Zm145.118-.34-.637-.786a18.406,18.406,0,0,0,3.924-4.378l.851.547A19.458,19.458,0,0,1,4213.6,1587.911Zm-152.016-9.775a19.4,19.4,0,0,1-.737-5.31V1572h1.011v.827a18.423,18.423,0,0,0,.7,5.033Zm158.624-.531-.98-.249a18.5,18.5,0,0,0,.562-4.53v-1.364h1.012v1.364A19.455,19.455,0,0,1,4220.211,1577.605Zm-158.349-11.672h-1.011v-6.067h1.011Zm158.942-.536h-1.012v-6.067h1.012Zm-158.942-11.6h-1.011v-6.067h1.011Zm158.942-.536h-1.012V1547.2h1.012Zm-158.942-11.6h-1.011V1535.6h1.011Zm158.942-.536h-1.012v-6.067h1.012Zm-158.942-11.6h-1.011v-6.067h1.011Zm158.942-.536h-1.012v-6.067h1.012Zm-158.942-11.6h-1.011v-6.067h1.011Zm158.942-.536h-1.012v-6.067h1.012Zm-158.942-11.6h-1.011v-4.042a19.711,19.711,0,0,1,.11-2.074l1.005.106a18.754,18.754,0,0,0-.1,1.967Zm158.942-.536h-1.012v-3.505a18.867,18.867,0,0,0-.165-2.487l1-.134a19.632,19.632,0,0,1,.176,2.621Zm-157.286-11.142-.92-.421a19.4,19.4,0,0,1,3.449-5.155l.74.689A18.35,18.35,0,0,0,4063.518,1493.585Zm154.4-.47a18.422,18.422,0,0,0-3.406-4.792l.721-.709a19.4,19.4,0,0,1,3.591,5.055Zm-146.49-8.027-.486-.887a19.254,19.254,0,0,1,5.848-2.067l.18,1A18.222,18.222,0,0,0,4071.425,1485.088Zm138.346-.244a18.249,18.249,0,0,0-5.594-1.8l.15-1a19.272,19.272,0,0,1,5.9,1.9Zm-11.575-2.006h-6.067v-1.011h6.067Zm-12.134,0H4180v-1.011h6.066Zm-12.134,0h-6.067v-1.011h6.067Zm-12.134,0h-6.067v-1.011h6.067Zm-12.134,0h-6.067v-1.011h6.067Zm-12.134,0h-6.067v-1.011h6.067Zm-12.134,0h-6.066v-1.011h6.066Zm-12.133,0h-6.067v-1.011h6.067Zm-12.134,0h-6.067v-1.011h6.067Zm-12.134,0h-6.067v-1.011h6.067Z" transform="translate(-4046.331 -1462.299)" fill="#9192ff"/>
      <rect id="Rectangle_52" data-name="Rectangle 52" width="158.943" height="112.395" rx="36.912" transform="translate(0 0)" fill="#9192ff"/>
      <g id="Group_82" data-name="Group 82" transform="translate(27.636 33.995)">
        <rect id="Rectangle_53" data-name="Rectangle 53" width="17.209" height="34.95" transform="translate(0 31.658)" fill="#fff"/>
        <rect id="Rectangle_54" data-name="Rectangle 54" width="17.21" height="33.828" transform="translate(28.821 32.78)" fill="#fff"/>
        <rect id="Rectangle_55" data-name="Rectangle 55" width="17.209" height="51.499" transform="translate(57.641 15.109)" fill="#fff"/>
        <rect id="Rectangle_56" data-name="Rectangle 56" width="17.209" height="66.608" transform="translate(86.462)" fill="#fff"/>
      </g>
      <rect id="Rectangle_57" data-name="Rectangle 57" width="92.343" height="4.037" transform="translate(33.3 15.829)" fill="#fff"/>
    </g>
    <g id="Group_100" data-name="Group 100" transform="translate(3008.31 589.52)">
      <g id="Group_96" data-name="Group 96" transform="translate(14.596 0)">
        <g id="Group_84" data-name="Group 84" transform="translate(90.33 69.699)">
          <path id="Path_46" data-name="Path 46" d="M3381.157,1121.312a47.927,47.927,0,0,0-17.62-25.3l-3.414-2.516,2.9,59.956,22.407-17.334Z" transform="translate(-3360.123 -1093.494)" fill="#ffa121"/>
          <path id="Path_47" data-name="Path 47" d="M3457.432,1256.539l-4.978-9.748a9.9,9.9,0,0,0-6.172-5.036l-14.647-4.056-37.68-24.058-4.26-14.768-22.408,17.334.2,4.211a22.158,22.158,0,0,0,13.355,19.276l36.587,15.782,17.391.386c5.6,1.932,7.536,6.764,11.015,5.024,1.3-.648-3.768-8.985-3.768-8.985l8.406,9.275Z" transform="translate(-3364.389 -1156.251)" fill="#ffbc96"/>
          <rect id="Rectangle_58" data-name="Rectangle 58" width="7.609" height="1.159" transform="translate(24.197 62.814) rotate(-49.665)" fill="#d28572"/>
        </g>
        <g id="Group_86" data-name="Group 86" transform="translate(117.838 191.735)">
          <path id="Path_48" data-name="Path 48" d="M3428.133,1397.755l27.414-2.42c17.845-1.575,33.367,12.835,34.237,31.784l6.195,135.014-37.815,1.178Z" transform="translate(-3428.133 -1395.217)" fill="#26289c"/>
          <g id="Group_85" data-name="Group 85" transform="translate(33.071 163.08)">
            <path id="Path_49" data-name="Path 49" d="M3509.9,1802.086l1.159,37.294H3567.1l-27.632-22.995-1.739-17.971Z" transform="translate(-3509.898 -1798.415)" fill="#1b1b43"/>
            <rect id="Rectangle_59" data-name="Rectangle 59" width="14.88" height="2.319" transform="matrix(0.792, -0.61, 0.61, 0.792, 17.07, 26.134)" fill="#fff"/>
          </g>
        </g>
        <g id="Group_88" data-name="Group 88" transform="translate(9.189 175.494)">
          <g id="Group_87" data-name="Group 87" transform="translate(128.966 179.32)">
            <path id="Path_50" data-name="Path 50" d="M3478.367,1802.086l1.159,37.294h56.038l-27.632-22.995-1.739-17.971Z" transform="translate(-3478.367 -1798.415)" fill="#d1d1ff"/>
            <rect id="Rectangle_60" data-name="Rectangle 60" width="14.881" height="2.319" transform="matrix(0.792, -0.61, 0.61, 0.792, 17.07, 26.134)" fill="#fff"/>
          </g>
          <path id="Path_51" data-name="Path 51" d="M3330.216,1541.726h-46.376l-33.054-101.7-4.626-14.238-66.085-.29a18.287,18.287,0,0,1-11.3-4.742,26.9,26.9,0,0,1-8.985-24.336l5.8-41.355,98.178,12.765a44.091,44.091,0,0,1,37.484,34.735Z" transform="translate(-3159.511 -1355.063)" fill="#3335cf"/>
          <path id="Path_52" data-name="Path 52" d="M3387.362,1529.919l-9,14.238-4.626-14.238Z" transform="translate(-3287.091 -1459.196)" fill="#1b1b43"/>
        </g>
        <g id="Group_89" data-name="Group 89" transform="translate(0 66.221)">
          <path id="Path_53" data-name="Path 53" d="M3234.113,1186.679c-.475,1.913-.974,3.826-1.484,5.751l-3.478,14.2-45.8-1.9-32.973-1.368a14.164,14.164,0,0,1-13.286-17.043l15.373-73.981a28.083,28.083,0,0,1,24.857-23.571l37.623-3.872,12.174,3.478c11.884,6.377,11.9,17.936,12.463,25.507C3242.078,1147.016,3239.005,1167.085,3234.113,1186.679Z" transform="translate(-3136.792 -1084.895)" fill="#ffa121"/>
          <path id="Path_54" data-name="Path 54" d="M3230.652,1255.875c-.476,1.913,30.075,6.191,29.565,8.116l-3.478,14.2-45.8-1.9c-16-12.069-21.994-38.33-27.826-71.234Z" transform="translate(-3164.38 -1156.456)" fill="#1b1b43" opacity="0.3"/>
          <path id="Path_55" data-name="Path 55" d="M3277.629,1137.805a27.533,27.533,0,0,0,6.844,5.426,22.61,22.61,0,0,0,8.178,2.761,13.755,13.755,0,0,0,8.321-1.223,8.554,8.554,0,0,0,4.47-6.833l.452.03a9.362,9.362,0,0,1-1.152,4.413,8.79,8.79,0,0,1-3.273,3.273,14.3,14.3,0,0,1-8.965,1.48,22.31,22.31,0,0,1-8.521-3.053,24.063,24.063,0,0,1-6.7-5.983Z" transform="translate(-3220.458 -1116.405)" fill="#1b1b43"/>
          <path id="Path_56" data-name="Path 56" d="M3388.473,1186.538l-.867-.062c.833-11.665-.011-26-2.508-42.61l.86-.128C3388.465,1160.409,3389.311,1174.809,3388.473,1186.538Z" transform="translate(-3284.667 -1119.938)" fill="#1b1b43"/>
        </g>
        <g id="Group_90" data-name="Group 90" transform="translate(138.542 106.317)">
          <rect id="Rectangle_61" data-name="Rectangle 61" width="43.091" height="8.502" transform="translate(0 67.632)" fill="#1b1b43"/>
          <path id="Path_57" data-name="Path 57" d="M3642.809,1260.162H3556.24l39.806-76.134h86.569Z" transform="translate(-3525.129 -1184.028)" fill="#9192ff"/>
        </g>
        <g id="Group_93" data-name="Group 93" transform="translate(19.211)">
          <path id="Path_58" data-name="Path 58" d="M3231.785,926.523c-10.145-10-29.275-5.8-28.985,11.014-20.869,5.507-22.029,28.406-13.623,40.144l7.246.58,1.594-8.55,4.2,8.7,20.289,1.3Z" transform="translate(-3184.289 -921.171)" fill="#1b1b43"/>
          <path id="Path_59" data-name="Path 59" d="M3300.092,1026.848v31.941c0,.29-.012.568-.035.847a10.722,10.722,0,0,1-13.368,9.542,21.563,21.563,0,0,1-16.174-21.055l.163-21.275Z" transform="translate(-3235.639 -984.105)" fill="#ffbc96"/>
          <path id="Path_60" data-name="Path 60" d="M3312.913,1056.447v18.133c0,.29-.012.568-.035.847-8.545-1.4-18.423-11.293-20.834-22.064Z" transform="translate(-3248.461 -999.896)" fill="#1b1b43"/>
          <path id="Path_61" data-name="Path 61" d="M3316.97,991.009a57.6,57.6,0,0,1-1.82,7.605c-2.551,8.1-7.13,14.829-15.327,13.658-19.269-2.76-29.994-22.609-29.994-22.609l13.182-15.072,8.846-11.9,26.516,11.455A99.739,99.739,0,0,1,3316.97,991.009Z" transform="translate(-3235.231 -945.901)" fill="#ffbc96"/>
          <path id="Path_62" data-name="Path 62" d="M3264.595,963.506c8.457-.271,15-4.578,17.778-16.812,0,0,19.71,17,29.371,7.923,8.091-7.605-5.635-25.1-28.354-27.187a32.187,32.187,0,0,0-23.012,7.021c-11.011,8.823-12.063,29.344-1.774,36.446Z" transform="translate(-3224.297 -924.821)" fill="#1b1b43"/>
          <path id="Path_63" data-name="Path 63" d="M3259.07,943.3a9.036,9.036,0,0,1,.751-6.118,13.594,13.594,0,0,1,3.969-4.885,13.98,13.98,0,0,1,5.68-2.656,10.238,10.238,0,0,1,6.121.47,33.9,33.9,0,0,0-5.242,2.119,28.472,28.472,0,0,0-4.429,2.814,25.662,25.662,0,0,0-3.791,3.585A21.278,21.278,0,0,0,3259.07,943.3Z" transform="translate(-3228.675 -926.064)" fill="#ffa121"/>
          <g id="Group_91" data-name="Group 91" transform="translate(28.68 30.192)">
            <ellipse id="Ellipse_7" data-name="Ellipse 7" cx="6.594" cy="7.967" rx="6.594" ry="7.967" transform="translate(0 4.901) rotate(-21.816)" fill="#ffbc96"/>
            <path id="Path_64" data-name="Path 64" d="M3274.206,1019.585a9.448,9.448,0,0,0-.257-3.978,10.827,10.827,0,0,0-2.084-3.413l.285-.353a5.784,5.784,0,0,1,2.49,7.874Z" transform="translate(-3265.124 -1005.36)" fill="#1b1b43"/>
          </g>
          <g id="Group_92" data-name="Group 92" transform="translate(52.569 33.231)">
            <path id="Path_65" data-name="Path 65" d="M3350.186,1017.224a1.968,1.968,0,1,1-1.958-2.167A2.07,2.07,0,0,1,3350.186,1017.224Z" transform="translate(-3333.322 -1010.314)" fill="#1b1b43"/>
            <path id="Path_66" data-name="Path 66" d="M3376.253,1021.484a1.752,1.752,0,1,1-1.495-2.128A1.843,1.843,0,0,1,3376.253,1021.484Z" transform="translate(-3349.108 -1012.867)" fill="#1b1b43"/>
            <path id="Path_67" data-name="Path 67" d="M3343.952,1004.8c.078,1.013-1.542,1.109-3.928,1.18s-4.036.809-4.055.169,1.746-2.285,4.1-2.683C3342.5,1003.056,3343.859,1003.6,3343.952,1004.8Z" transform="translate(-3327.188 -1003.33)" fill="#1b1b43"/>
            <path id="Path_68" data-name="Path 68" d="M3374.533,1007.54c-.176,1,1.015,1.256,2.78,1.564s2.9,1.207,2.991.573-1.031-2.444-2.733-3.074C3375.815,1005.953,3374.742,1006.353,3374.533,1007.54Z" transform="translate(-3350.144 -1005.094)" fill="#1b1b43"/>
            <path id="Path_69" data-name="Path 69" d="M3366.957,1029.088a16.887,16.887,0,0,0,1.47,1.525l.782.727a4.405,4.405,0,0,1,.824.924,1.665,1.665,0,0,1,.249.772,1.521,1.521,0,0,1-.194.821,2.851,2.851,0,0,1-.935.944,5.844,5.844,0,0,1-2.168.785l-.169-.42a16.13,16.13,0,0,0,1.728-1.181,2.239,2.239,0,0,0,.54-.649c.09-.193.064-.259-.043-.484-.258-.423-.915-.986-1.344-1.572a6.564,6.564,0,0,1-1.139-1.976Z" transform="translate(-3345.406 -1018.67)" fill="#1b1b43"/>
            <path id="Path_70" data-name="Path 70" d="M3342.715,1046.732a14.542,14.542,0,0,0,3.9,3.4,8.175,8.175,0,0,0,4.929.855l.12.437a6.09,6.09,0,0,1-2.8.53,6.409,6.409,0,0,1-2.8-.807,8.962,8.962,0,0,1-3.735-4.167Z" transform="translate(-3330.978 -1029.177)" fill="#1b1b43"/>
            <circle id="Ellipse_8" data-name="Ellipse 8" cx="4.784" cy="4.784" r="4.784" transform="translate(0 6.755)" fill="#fe5b52" opacity="0.2"/>
            <path id="Path_71" data-name="Path 71" d="M3381.942,1032.7a57.6,57.6,0,0,1-1.82,7.606,4.783,4.783,0,0,1,1.82-7.606Z" transform="translate(-3352.772 -1020.819)" fill="#fe5b52" opacity="0.2"/>
          </g>
        </g>
        <g id="Group_95" data-name="Group 95" transform="translate(18.737 93.574)">
          <g id="Group_94" data-name="Group 94" transform="translate(0 8.106)">
            <path id="Path_72" data-name="Path 72" d="M3210.75,1172.562l-27.632,13.14,8.667,20.543,28.972-13.362Z" transform="translate(-3183.117 -1172.562)" fill="#ffa121"/>
            <path id="Path_73" data-name="Path 73" d="M3502.666,1346.967c-.767-.384-1.246-.641-1.246-.641l.277-.545s.51.245,1.251.643Z" transform="translate(-3372.677 -1275.72)" fill="#c5c5ff"/>
            <path id="Path_74" data-name="Path 74" d="M3337.316,1276.587c-.893,1.762-7.733-1.356-10.921-2.921,2.469,1.368,6.724,4.058,4.835,5.53-1.519,1.171-4.881-1.322-15.9-5.89,1.669.788,11.513,5.472,9.032,7.246-2.7,1.925-14.3-2.319-14.3-2.319l-10.052,5.4h-11.594l-41.715.267a30.423,30.423,0,0,1-7.733-.974,34.7,34.7,0,0,1-13.565-7.026,34.068,34.068,0,0,1-6.434-7.223,38.533,38.533,0,0,1-3.443-6.447l-11-26.063L3233.5,1222.8l15.118,30.689,49.854,10.829,13.913-3.478c2.991-.753,7.223.51,9.854,2.122C3328.667,1266.894,3338.151,1274.906,3337.316,1276.587Z" transform="translate(-3195.869 -1202.482)" fill="#ffbc96"/>
          </g>
          <path id="Path_75" data-name="Path 75" d="M3261,1342.018a12.635,12.635,0,0,1-.754,4.313,34.688,34.688,0,0,1-13.565-7.026,34.059,34.059,0,0,1-6.435-7.223,12.757,12.757,0,0,1,20.754,9.936Z" transform="translate(-3217.139 -1257.778)" fill="#fe5b52" opacity="0.2"/>
          <path id="Path_76" data-name="Path 76" d="M3436.626,1319.475a94.788,94.788,0,0,1,10.534-2.888,37.8,37.8,0,0,1,5.442-.775,16.4,16.4,0,0,1,2.8.073c.466.093.929.215,1.394.325.442.156.874.334,1.312.5a44.971,44.971,0,0,1,9.2,6c2.857,2.278,5.554,4.723,8.176,7.273l.121.118.025.148a2.2,2.2,0,0,1-.275,1.569,1.872,1.872,0,0,1-.63.556,1.808,1.808,0,0,1-.724.252,5.978,5.978,0,0,1-2.6-.255,25.827,25.827,0,0,1-4.5-1.889c-1.419-.759-2.818-1.549-4.174-2.4-1.378-.818-2.689-1.731-4.032-2.6l.613-.979a71.978,71.978,0,0,1,6.884,4.558,18.447,18.447,0,0,1,3.111,2.857,4.121,4.121,0,0,1,.6,1.021,1.891,1.891,0,0,1,.138.707,1.358,1.358,0,0,1-.3.791,2.122,2.122,0,0,1-1.177.657,6.854,6.854,0,0,1-1.115.159l-.114.012-.124-.052-12.586-5.273.377-.885a43.919,43.919,0,0,1,5.753,3.1,7.838,7.838,0,0,1,2.5,2.33,1.358,1.358,0,0,1,.1,1.108,1.49,1.49,0,0,1-.747.769,4.166,4.166,0,0,1-1.731.389,24.425,24.425,0,0,1-6.477-1c-2.1-.554-4.156-1.206-6.193-1.944l.153-.426c2.033.681,4.1,1.281,6.188,1.778a23.932,23.932,0,0,0,6.285.823c.986-.039,2.162-.472,1.682-1.123a7.331,7.331,0,0,0-2.243-1.977,43.091,43.091,0,0,0-5.659-2.953l.376-.885,12.631,5.161-.237-.04a5.824,5.824,0,0,0,.908-.132,1.147,1.147,0,0,0,.592-.284c.177-.07-.061-.693-.457-1.159a17.539,17.539,0,0,0-2.924-2.648,71,71,0,0,0-6.783-4.446l.613-.979c1.333.853,2.627,1.776,3.984,2.584,1.337.846,2.708,1.627,4.092,2.375a24.88,24.88,0,0,0,4.279,1.823,5.049,5.049,0,0,0,2.1.245l.224-.04a1.242,1.242,0,0,0,.17-.086c.134-.039.174-.145.265-.211a1.167,1.167,0,0,0,.124-.732l.146.266c-2.565-2.53-5.265-4.956-8.049-7.249a44.159,44.159,0,0,0-8.917-5.981l-1.224-.487c-.418-.1-.832-.218-1.253-.31a15.732,15.732,0,0,0-2.637-.1,38.138,38.138,0,0,0-5.347.647,94.18,94.18,0,0,0-10.524,2.635Z" transform="translate(-3334.091 -1249.749)" fill="#d28572"/>
          <path id="Path_77" data-name="Path 77" d="M3204.443,1194.71l-.365-.79,28.59-13.191-11.908-27.866.8-.342,12.24,28.644Z" transform="translate(-3195.601 -1152.522)" fill="#1b1b43"/>
        </g>
      </g>
      <g id="Group_97" data-name="Group 97" transform="translate(0 245.638)">
        <rect id="Rectangle_62" data-name="Rectangle 62" width="1.517" height="130.626" transform="translate(44.748 12.174)" fill="#1b1b43"/>
        <rect id="Rectangle_63" data-name="Rectangle 63" width="91.013" height="17.971" rx="8.985" fill="#d1d1ff"/>
        <path id="Rectangle_64" data-name="Rectangle 64" d="M15,0H46.453a15,15,0,0,1,15,15v0a0,0,0,0,1,0,0H0a0,0,0,0,1,0,0v0A15,15,0,0,1,15,0Z" transform="translate(14.782 136.307)" fill="#d1d1ff"/>
      </g>
      <g id="Group_99" data-name="Group 99" transform="translate(84.54 182.451)">
        <g id="Group_98" data-name="Group 98" transform="translate(48.028 7.979)">
          <rect id="Rectangle_65" data-name="Rectangle 65" width="1.517" height="242.64" transform="translate(0.026 0.809) rotate(-32.247)" fill="#1b1b43"/>
          <rect id="Rectangle_66" data-name="Rectangle 66" width="242.64" height="1.517" transform="translate(0 205.198) rotate(-57.738)" fill="#1b1b43"/>
        </g>
        <rect id="Rectangle_67" data-name="Rectangle 67" width="226.856" height="17.107" fill="#d1d1ff"/>
      </g>
    </g>
    <g id="Group_102" data-name="Group 102" transform="translate(3064.458 381.64)">
      <path id="Path_78" data-name="Path 78" d="M3286.933,558.277a47.409,47.409,0,1,1,47.409-47.409A47.463,47.463,0,0,1,3286.933,558.277Zm0-93.807a46.4,46.4,0,1,0,46.4,46.4A46.45,46.45,0,0,0,3286.933,464.47Z" transform="translate(-3239.524 -440.708)" fill="#9192ff"/>
      <g id="Group_101" data-name="Group 101" transform="translate(27.885)">
        <circle id="Ellipse_9" data-name="Ellipse 9" cx="51.583" cy="51.583" r="51.583" fill="#ebebff"/>
        <path id="Path_79" data-name="Path 79" d="M3393.94,502.4l-28.6-22.418.936-1.194,27.624,21.656,15.4-13.043.98,1.157Z" transform="translate(-3342.338 -449.834)" fill="#1b1b43"/>
      </g>
    </g>
    <g id="Group_104" data-name="Group 104" transform="translate(2975.735 543.96)">
      <g id="Group_103" data-name="Group 103" transform="translate(0 0)">
        <path id="Path_80" data-name="Path 80" d="M3055.243,809.778h-26.194a7.632,7.632,0,0,0-7.632,7.632V843.6a7.632,7.632,0,0,0,7.632,7.632h18.693l8.055,11.123V851.208a7.628,7.628,0,0,0,7.078-7.6V817.41A7.632,7.632,0,0,0,3055.243,809.778Z" transform="translate(-3020.911 -809.273)" fill="#fff"/>
        <path id="Path_81" data-name="Path 81" d="M3055.557,863.174,3046.739,851H3028.3a8.147,8.147,0,0,1-8.138-8.138V816.666a8.147,8.147,0,0,1,8.138-8.137H3054.5a8.147,8.147,0,0,1,8.137,8.137v26.194a8.163,8.163,0,0,1-7.078,8.061ZM3028.3,809.539a7.135,7.135,0,0,0-7.127,7.126v26.194a7.135,7.135,0,0,0,7.127,7.127h18.951l7.291,10.068V849.993l.469-.034a7.146,7.146,0,0,0,6.609-7.1V816.666a7.134,7.134,0,0,0-7.126-7.126Z" transform="translate(-3020.166 -808.528)" fill="#9192ff"/>
      </g>
      <path id="Path_82" data-name="Path 82" d="M3055.9,855.3l-10.485-15.145,2.494-1.727,7.716,11.145,11.621-20.8,2.648,1.48Z" transform="translate(-3035.204 -820.59)" fill="#9192ff"/>
    </g>
    <rect id="Rectangle_68" data-name="Rectangle 68" width="621.436" height="1.517" transform="translate(2965.961 984.943)" fill="#1b1b43"/>
  </g>
</svg>
