<svg xmlns="http://www.w3.org/2000/svg" width="77.14" height="72.694" viewBox="0 0 77.14 72.694">
  <g id="Group_17414" data-name="Group 17414" transform="translate(-379.869 -720.217)">
    <path id="Path_7" data-name="Path 7" d="M203.42,208.32H183.6a2.159,2.159,0,1,0,0,4.319H203.42a2.159,2.159,0,1,0,0-4.319Z" transform="translate(211.842 534.148)" fill="silver"/>
    <path id="Path_8" data-name="Path 8" d="M183.6,309.519H196.67a2.159,2.159,0,1,0,0-4.319H183.6a2.159,2.159,0,1,0,0,4.319Z" transform="translate(211.842 452.211)" fill="silver"/>
    <path id="Path_9" data-name="Path 9" d="M183.6,406.959h34.874a2.159,2.159,0,1,0,0-4.319H183.6a2.159,2.159,0,1,0,0,4.319Z" transform="translate(211.842 369.801)" fill="silver"/>
    <path id="Path_10" data-name="Path 10" d="M159.109,122.341a2.14,2.14,0,0,0-2.163,2.159v22.976a5.608,5.608,0,0,1-5.624,5.614H104.592a5.608,5.608,0,0,1-5.624-5.614V98.415a5.608,5.608,0,0,1,5.624-5.614H142.58a2.159,2.159,0,1,0,0-4.319H104.591a10,10,0,0,0-9.951,9.933v49.061a10,10,0,0,0,9.951,9.933H151.32a10,10,0,0,0,9.951-9.933V124.5A2.14,2.14,0,0,0,159.109,122.341Z" transform="translate(285.229 635.502)" fill="silver"/>
    <path id="Path_11" data-name="Path 11" d="M375.856,70.589,368.415,64.8a3.251,3.251,0,0,0-2.6-.691,3.5,3.5,0,0,0-2.423,1.382l-4.76,6.133-19.73,25.135v.086l-.086.086a.656.656,0,0,0-.173.345c0,.086,0,.086-.086.173a1.1,1.1,0,0,0-.086.518l-.866,10.97a2.2,2.2,0,0,0,.866,1.9,2.335,2.335,0,0,0,1.3.432,1.915,1.915,0,0,0,.692-.086l10.471-3.455a1.9,1.9,0,0,0,.433-.259.084.084,0,0,0,.086-.086l.26-.259.086-.086v-.086l24.49-31.268a3.5,3.5,0,0,0-.433-5.1Zm-15.144,5.356,6.231,4.837L349.9,102.548l-6.231-4.837ZM342.194,106l.259-3.714,3.289,2.5Zm27.432-28.59L363.4,72.576l2.942-3.8,6.231,4.837Z" transform="translate(79.817 656.159)" fill="silver"/>
  </g>
</svg>
