<svg xmlns="http://www.w3.org/2000/svg" width="56.263" height="53.02" viewBox="0 0 56.263 53.02">
  <g id="Group_1159" data-name="Group 1159" transform="translate(-379.869 -720.217)">
    <path id="Path_7" data-name="Path 7" d="M197.471,208.32H183.018a1.575,1.575,0,1,0,0,3.15h14.453a1.575,1.575,0,1,0,0-3.15Z" transform="translate(208.211 528.126)" fill="#2d2d2d"/>
    <path id="Path_8" data-name="Path 8" d="M183.018,308.35h9.53a1.575,1.575,0,1,0,0-3.15h-9.53a1.575,1.575,0,1,0,0,3.15Z" transform="translate(208.211 442.145)" fill="#2d2d2d"/>
    <path id="Path_9" data-name="Path 9" d="M183.018,405.79h25.435a1.575,1.575,0,1,0,0-3.15H183.018a1.575,1.575,0,1,0,0,3.15Z" transform="translate(208.211 355.667)" fill="#2d2d2d"/>
    <path id="Path_10" data-name="Path 10" d="M141.661,113.177a1.561,1.561,0,0,0-1.578,1.575V131.51a4.09,4.09,0,0,1-4.1,4.095H101.9a4.09,4.09,0,0,1-4.1-4.095V95.727a4.09,4.09,0,0,1,4.1-4.095h27.707a1.575,1.575,0,1,0,0-3.15H101.9a7.293,7.293,0,0,0-7.258,7.245V131.51a7.293,7.293,0,0,0,7.258,7.245H135.98a7.293,7.293,0,0,0,7.258-7.245V114.752A1.561,1.561,0,0,0,141.661,113.177Z" transform="translate(285.229 634.483)" fill="#2d2d2d"/>
    <path id="Path_11" data-name="Path 11" d="M365.5,68.822,360.073,64.6a2.371,2.371,0,0,0-1.894-.5,2.556,2.556,0,0,0-1.767,1.008l-3.471,4.473-14.39,18.333v.063l-.063.063a.479.479,0,0,0-.126.252c0,.063,0,.063-.063.126a.8.8,0,0,0-.063.378l-.631,8a1.6,1.6,0,0,0,.631,1.386,1.7,1.7,0,0,0,.947.315,1.4,1.4,0,0,0,.505-.063l7.637-2.52a1.384,1.384,0,0,0,.316-.189.062.062,0,0,0,.063-.063l.189-.189.063-.063v-.063L365.817,72.54a2.553,2.553,0,0,0-.316-3.718Zm-11.045,3.906L359,76.256,346.567,92.131,342.022,88.6ZM340.95,94.651l.189-2.709,2.4,1.827ZM360.957,73.8l-4.544-3.528,2.146-2.772,4.544,3.528Z" transform="translate(69.656 656.159)" fill="#2d2d2d"/>
  </g>
</svg>
