<svg xmlns="http://www.w3.org/2000/svg" xmlns:xlink="http://www.w3.org/1999/xlink" width="153" height="153" viewBox="0 0 153 153">
  <defs>
    <linearGradient id="linear-gradient" x1="1.111" y1="0.269" x2="0" y2="0.841" gradientUnits="objectBoundingBox">
      <stop offset="0" stop-color="#348ac7"/>
      <stop offset="1" stop-color="#7373bc"/>
    </linearGradient>
  </defs>
  <g id="Group_11" data-name="Group 11" transform="translate(0)">
    <rect id="Rectangle_25" data-name="Rectangle 25" width="153" height="153" rx="30" transform="translate(0 0)" fill="url(#linear-gradient)"/>
    <path id="Union_3" data-name="Union 3" d="M13.708,101.02A13.835,13.835,0,0,1,0,87.217V19.038a13.836,13.836,0,0,1,13.708-13.8H66.039a3,3,0,0,1,0,6H13.708a7.759,7.759,0,0,0-7.748,7.8V87.217a7.759,7.759,0,0,0,7.748,7.8H78.08a7.759,7.759,0,0,0,7.748-7.8V55.288a2.98,2.98,0,1,1,5.96,0V87.217a13.835,13.835,0,0,1-13.708,13.8Zm7.749-22.446a3,3,0,0,1,0-6H69.5a3,3,0,0,1,0,6Zm31.47-13.564a3.066,3.066,0,0,1-1.192-2.641l1.192-15.244a1.534,1.534,0,0,1,.119-.72c.119-.121.119-.121.119-.24a.913.913,0,0,1,.239-.48l.119-.12v-.12L80.7,10.517l6.556-8.523A4.819,4.819,0,0,1,90.6.073a4.45,4.45,0,0,1,3.576.96l10.252,8.042h0a4.893,4.893,0,0,1,.6,7.083L71.285,59.611v.12l-.119.12-.357.36a.117.117,0,0,1-.119.12,2.617,2.617,0,0,1-.6.36l-14.424,4.8a2.618,2.618,0,0,1-.954.12A3.2,3.2,0,0,1,52.927,65.011Zm5.126-6.721,4.888-1.68-4.53-3.481Zm2.027-11.523,8.583,6.722L92.145,23.24l-8.583-6.722ZM87.258,11.837l8.583,6.722,4.053-5.282L91.311,6.556Zm-65.8,45.851a3,3,0,0,1,0-6h18a3,3,0,0,1,0,6Zm0-20.766a3,3,0,0,1,0-6h27.3a3,3,0,0,1,0,6Z" transform="translate(23.106 26.217)" fill="#fff"/>
  </g>
</svg>
