<svg xmlns="http://www.w3.org/2000/svg" width="104.754" height="104.936" viewBox="0 0 104.754 104.936">
  <g id="Group_17412" data-name="Group 17412" transform="translate(-874.619 -720.217)">
    <path id="Path_3" data-name="Path 3" d="M277.473,147.88l-7.967,7.967,7.967,7.967,2.721-2.72-5.052-5.247,5.052-5.247Z" transform="translate(639.703 595.462)" fill="silver"/>
    <path id="Path_4" data-name="Path 4" d="M382.38,150.59l5.052,5.247-5.052,5.247,2.721,2.72,7.967-7.967L385.1,147.87Z" transform="translate(551.895 595.469)" fill="silver"/>
    <path id="Path_5" data-name="Path 5" d="M322.29,151.534l8.671-23.314,3.643,1.355-8.671,23.314Z" transform="translate(598.64 610.756)" fill="silver"/>
    <path id="Path_6" data-name="Path 6" d="M214.608,136.64a7.729,7.729,0,0,0-4.664-4.858V72.9H197.313a31.156,31.156,0,0,0-62.183,0H122.5v56.937a7.047,7.047,0,0,0-4.081,5.441,6.956,6.956,0,0,0-4.664,6.607,6.759,6.759,0,0,0,6.8,6.8h16.517a6.139,6.139,0,0,0,6.218-6.218,6.254,6.254,0,0,0-4.081-5.83,7.762,7.762,0,0,0-8.55-5.247,7.463,7.463,0,0,0-4.469-2.138V76.791h8.939a31.188,31.188,0,0,0,29.148,29.148v7.773c-.389,0-.777-.194-1.166-.194a7.484,7.484,0,0,0-7.19,6.024,6.956,6.956,0,0,0-4.664,6.607,6.759,6.759,0,0,0,6.8,6.8h16.517a6.139,6.139,0,0,0,6.218-6.218,6.549,6.549,0,0,0-4.081-5.83,7.762,7.762,0,0,0-8.55-5.247l-.194-.194v-9.522a31.188,31.188,0,0,0,29.148-29.148h8.744V131.4a7.176,7.176,0,0,0-5.247-2.138,7.484,7.484,0,0,0-7.19,6.024,6.956,6.956,0,0,0-4.664,6.607,6.8,6.8,0,0,0,7,6.8h16.517a6.139,6.139,0,0,0,6.218-6.218,6.075,6.075,0,0,0-3.886-5.83ZM166.221,102.05a27.205,27.205,0,1,1,27.205-27.205A27.285,27.285,0,0,1,166.221,102.05Z" transform="translate(760.864 676.462)" fill="silver"/>
  </g>
</svg>
