<svg xmlns="http://www.w3.org/2000/svg" width="52.928" height="53.02" viewBox="0 0 52.928 53.02">
  <g id="Group_1158" data-name="Group 1158" transform="translate(-874.619 -720.217)">
    <path id="Path_3" data-name="Path 3" d="M273.531,147.88l-4.026,4.025,4.026,4.026,1.375-1.375-2.553-2.651,2.553-2.651Z" transform="translate(622.591 584.021)" fill="#2d2d2d"/>
    <path id="Path_4" data-name="Path 4" d="M382.38,149.245l2.553,2.651-2.553,2.651,1.375,1.375,4.025-4.025-4.025-4.026Z" transform="translate(522.381 584.03)" fill="#2d2d2d"/>
    <path id="Path_5" data-name="Path 5" d="M322.29,140l4.381-11.78,1.84.685-4.381,11.78Z" transform="translate(575.729 601.475)" fill="#2d2d2d"/>
    <path id="Path_6" data-name="Path 6" d="M164.712,90.686a3.905,3.905,0,0,0-2.356-2.455V58.482h-6.382a15.742,15.742,0,0,0-31.419,0h-6.382V87.251A3.561,3.561,0,0,0,116.111,90a3.515,3.515,0,0,0-2.356,3.338,3.415,3.415,0,0,0,3.436,3.436h8.346a3.1,3.1,0,0,0,3.142-3.142,3.16,3.16,0,0,0-2.062-2.945,3.922,3.922,0,0,0-4.32-2.651,3.771,3.771,0,0,0-2.258-1.08V60.447h4.516a15.758,15.758,0,0,0,14.727,14.727V79.1c-.2,0-.393-.1-.589-.1a3.782,3.782,0,0,0-3.633,3.044,3.515,3.515,0,0,0-2.356,3.338,3.415,3.415,0,0,0,3.436,3.436h8.346a3.1,3.1,0,0,0,3.142-3.142,3.309,3.309,0,0,0-2.062-2.945,3.922,3.922,0,0,0-4.32-2.651l-.1-.1V75.174a15.758,15.758,0,0,0,14.727-14.727h4.418v27.59a3.626,3.626,0,0,0-2.651-1.08A3.782,3.782,0,0,0,154.01,90a3.515,3.515,0,0,0-2.356,3.338,3.438,3.438,0,0,0,3.535,3.436h8.346a3.1,3.1,0,0,0,3.142-3.142,3.07,3.07,0,0,0-1.964-2.945ZM140.264,73.209a13.746,13.746,0,1,1,13.746-13.746A13.786,13.786,0,0,1,140.264,73.209Z" transform="translate(760.864 676.462)" fill="#2d2d2d"/>
  </g>
</svg>
