<svg xmlns="http://www.w3.org/2000/svg" width="39.765" height="53.02" viewBox="0 0 39.765 53.02">
  <path id="noun-document-4695945" d="M141.65,0A1.657,1.657,0,0,0,140,1.663V51.369a1.657,1.657,0,0,0,1.65,1.651h36.464a1.657,1.657,0,0,0,1.651-1.651V13.258a1.658,1.658,0,0,0-.489-1.175L167.681.489A1.656,1.656,0,0,0,166.507,0Zm1.664,3.314h21.539v9.945a1.657,1.657,0,0,0,1.65,1.654h9.948V49.707H143.313ZM168.167,5.66l5.935,5.935h-5.935Zm-14.106.968A1.656,1.656,0,0,0,152.423,8.3V40.739l-2.129-2.13a1.653,1.653,0,1,0-2.333,2.343l4.954,4.958a1.653,1.653,0,0,0,2.333,0l4.971-4.958a1.658,1.658,0,1,0-2.346-2.343l-2.136,2.142V8.3a1.656,1.656,0,0,0-1.676-1.676Z" transform="translate(-140)" fill="#2d2d2d"/>
</svg>
