<svg xmlns="http://www.w3.org/2000/svg" xmlns:xlink="http://www.w3.org/1999/xlink" width="148" height="148" viewBox="0 0 148 148">
  <defs>
    <linearGradient id="linear-gradient" x1="1.111" y1="0.269" x2="0" y2="0.841" gradientUnits="objectBoundingBox">
      <stop offset="0" stop-color="#3e86c5"/>
      <stop offset="1" stop-color="#6b76be"/>
    </linearGradient>
  </defs>
  <g id="Group_13" data-name="Group 13" transform="translate(0.129 0.395)">
    <rect id="Rectangle_25" data-name="Rectangle 25" width="148" height="148" rx="30" transform="translate(-0.129 -0.395)" fill="url(#linear-gradient)"/>
    <path id="Union_2" data-name="Union 2" d="M84.452,108.068a7.007,7.007,0,0,1-7.2-7,7.163,7.163,0,0,1,4.8-6.8,7.708,7.708,0,0,1,7.4-6.2,7.39,7.39,0,0,1,5.4,2.2V34.022H85.852A32.119,32.119,0,0,1,55.834,64.04v9.806l.2.2a7.994,7.994,0,0,1,8.805,5.4,6.745,6.745,0,0,1,4.2,6,6.322,6.322,0,0,1-6.4,6.4H45.628a6.961,6.961,0,0,1-7-7,7.164,7.164,0,0,1,4.8-6.8,7.708,7.708,0,0,1,7.4-6.2c.4,0,.8.2,1.2.2v-8A32.12,32.12,0,0,1,22.013,34.022H12.808V88.055a7.684,7.684,0,0,1,4.6,2.2,7.994,7.994,0,0,1,8.805,5.4,6.441,6.441,0,0,1,4.2,6,6.322,6.322,0,0,1-6.4,6.4H7a6.961,6.961,0,0,1-7-7,7.163,7.163,0,0,1,4.8-6.8,7.258,7.258,0,0,1,4.2-5.6V30.018H22.013a32.086,32.086,0,0,1,64.039,0H99.061V90.654a7.96,7.96,0,0,1,4.8,5v0a6.257,6.257,0,0,1,4,6,6.322,6.322,0,0,1-6.4,6.4ZM26.015,32.018A28.017,28.017,0,1,0,54.032,4,28.1,28.1,0,0,0,26.015,32.018Zm21.68,11.31,8.93-24.01,3.751,1.4-8.93,24.01ZM35.622,32.02l8.205-8.205,2.8,2.8-5.2,5.4,5.2,5.4-2.8,2.8Zm25.816,5.4,5.2-5.4-5.2-5.4,2.8-2.8,8.2,8.2-8.2,8.2Z" transform="translate(19.014 19.98)" fill="#fff"/>
  </g>
</svg>
